<svg width="14" height="14" viewBox="0 0 14 14" fill="none" xmlns="http://www.w3.org/2000/svg">
<path d="M7 2C3.81818 2 1.10091 4.07333 0 7C1.10091 9.92667 3.81818 12 7 12C10.1818 12 12.8991 9.92667 14 7C12.8991 4.07333 10.1818 2 7 2ZM7 10.3333C5.24364 10.3333 3.81818 8.84 3.81818 7C3.81818 5.16 5.24364 3.66667 7 3.66667C8.75636 3.66667 10.1818 5.16 10.1818 7C10.1818 8.84 8.75636 10.3333 7 10.3333ZM7 5C5.94364 5 5.09091 5.89333 5.09091 7C5.09091 8.10667 5.94364 9 7 9C8.05636 9 8.90909 8.10667 8.90909 7C8.90909 5.89333 8.05636 5 7 5Z" />
</svg>
