<svg width="14" height="14" viewBox="0 0 14 14" fill="none" xmlns="http://www.w3.org/2000/svg">
<path d="M7.00318 3.8263C8.76035 3.8263 10.1864 5.24104 10.1864 6.9842C10.1864 7.39472 10.1037 7.77999 9.95725 8.13999L11.8163 9.9842C12.7776 9.18841 13.5352 8.15894 14 6.9842C12.8986 4.21157 10.1801 2.24736 6.99682 2.24736C6.1055 2.24736 5.25239 2.40525 4.46294 2.68946L5.83811 4.05367C6.201 3.90841 6.58936 3.8263 7.00318 3.8263ZM0.636653 2.10209L2.08822 3.54209L2.38108 3.83262C1.32424 4.64736 0.496589 5.73367 0 6.9842C1.10141 9.75683 3.81992 11.721 7.00318 11.721C7.99 11.721 8.93224 11.5316 9.79172 11.1905L10.0591 11.4558L11.9245 13.3L12.7331 12.4979L1.4452 1.29999L0.636653 2.10209ZM4.15734 5.59472L5.14416 6.57367C5.11232 6.7063 5.09322 6.84525 5.09322 6.9842C5.09322 8.03262 5.94634 8.87893 7.00318 8.87893C7.14325 8.87893 7.28331 8.85999 7.41701 8.82841L8.40382 9.80736C7.97726 10.0158 7.50614 10.1421 7.00318 10.1421C5.24602 10.1421 3.81992 8.72736 3.81992 6.9842C3.81992 6.48525 3.94725 6.01788 4.15734 5.59472ZM6.90132 5.10209L8.90678 7.09157L8.91951 6.99051C8.91951 5.94209 8.06639 5.09578 7.00955 5.09578L6.90132 5.10209Z" />
</svg>
