<svg width="17" height="21" viewBox="0 0 17 21" fill="none" xmlns="http://www.w3.org/2000/svg">
<path d="M6.9375 15.8134C6.9375 16.0787 7.04286 16.333 7.23039 16.5206C7.41793 16.7081 7.67228 16.8134 7.9375 16.8134C8.20272 16.8134 8.45707 16.7081 8.64461 16.5206C8.83214 16.333 8.9375 16.0787 8.9375 15.8134C8.9375 15.5482 8.83214 15.2939 8.64461 15.1063C8.45707 14.9188 8.20272 14.8134 7.9375 14.8134C7.67228 14.8134 7.41793 14.9188 7.23039 15.1063C7.04286 15.2939 6.9375 15.5482 6.9375 15.8134Z" stroke="#576F98" stroke-width="1.5" stroke-miterlimit="10"/>
<path d="M11.1349 13.3543V4.97982C11.0921 4.12516 10.7365 3.32023 10.1416 2.73107C9.54668 2.1419 8.75773 1.81345 7.9375 1.81345C7.11727 1.81345 6.32832 2.1419 5.73339 2.73107C5.13845 3.32023 4.78292 4.12516 4.74012 4.97982V13.3543C4.22234 14.067 3.94064 14.936 3.9375 15.8303C3.98555 16.9035 4.42796 17.9161 5.17284 18.6578C5.91772 19.3996 6.90783 19.8134 7.9375 19.8134C8.96717 19.8134 9.95728 19.3996 10.7022 18.6578C11.447 17.9161 11.8895 16.9035 11.9375 15.8303C11.9344 14.936 11.6527 14.067 11.1349 13.3543Z" stroke="#576F98" stroke-width="1.5" stroke-miterlimit="10"/>
<path d="M7.9375 4.81345V14.8134" stroke="#576F98" stroke-width="1.5" stroke-miterlimit="10"/>
<path d="M10.9375 5.81345H13.9375" stroke="#576F98" stroke-width="1.5" stroke-miterlimit="10"/>
<path d="M10.9375 8.81345H13.9375" stroke="#576F98" stroke-width="1.5" stroke-miterlimit="10"/>
<path d="M10.9375 11.8134H13.9375" stroke="#576F98" stroke-width="1.5" stroke-miterlimit="10"/>
</svg>
